<?xml version="1.0" encoding="utf-8"?>
<!-- Generator: Adobe Illustrator 25.0.1, SVG Export Plug-In . SVG Version: 6.00 Build 0)  -->
<svg version="1.1" id="Warstwa_1" xmlns="http://www.w3.org/2000/svg" xmlns:xlink="http://www.w3.org/1999/xlink" x="0px" y="0px"
	 viewBox="0 0 49.7 49.7" style="enable-background:new 0 0 49.7 49.7;" xml:space="preserve">
<style type="text/css">
	.st0{fill:#1E3D91;}
</style>
<g>
	<path class="st0" d="M49.7,24.84c0-12.05-8.59-22.11-19.98-24.36c-0.97-0.2-1.96-0.34-2.97-0.41C26.13,0.02,25.49,0,24.84,0
		c-0.64,0-1.28,0.02-1.9,0.08c-1.01,0.07-2,0.21-2.97,0.4C8.58,2.74,0,12.79,0,24.84s8.58,22.12,19.98,24.38
		c0.97,0.19,1.96,0.33,2.97,0.4c0.62,0.06,1.26,0.08,1.9,0.08c0.64,0,1.29-0.02,1.91-0.08c1.01-0.07,2-0.21,2.97-0.41
		C41.11,46.96,49.7,36.9,49.7,24.84z M24.84,2.97c0.64,0,1.29,0.03,1.91,0.09v5.31v3.03v7.11v3.03c1.08,0.25,2.09,0.69,2.97,1.3
		c0.79,0.54,1.49,1.23,2.06,2c-0.56,0.77-1.27,1.44-2.06,2c-0.88,0.6-1.89,1.06-2.97,1.3v3.03v7.12c-0.61,0.15-1.26,0.22-1.91,0.22
		c-0.65,0-1.29-0.07-1.9-0.22v-7.12v-3.03c-1.08-0.24-2.08-0.68-2.97-1.3c-0.79-0.55-1.48-1.23-2.06-2c0.56-0.77,1.27-1.45,2.06-2
		c0.89-0.61,1.89-1.07,2.97-1.3V18.5v-7.11V8.36V3.05C23.57,3,24.2,2.97,24.84,2.97z M33.17,21.87c-0.99-1.02-2.16-1.85-3.45-2.45
		v-6.73c2.24,1.55,3.72,4.14,3.72,7.07C33.44,20.48,33.35,21.19,33.17,21.87z M33.44,29.89c0,2.93-1.47,5.52-3.72,7.07v-6.73
		c1.3-0.6,2.46-1.43,3.45-2.45C33.35,28.44,33.44,29.15,33.44,29.89z M16.26,19.75c0-2.93,1.47-5.52,3.72-7.07v6.72
		c-1.3,0.6-2.47,1.44-3.45,2.47C16.35,21.2,16.26,20.48,16.26,19.75z M16.53,27.76c0.98,1.02,2.16,1.87,3.45,2.47v6.72
		c-2.24-1.54-3.72-4.14-3.72-7.07C16.26,29.15,16.35,28.43,16.53,27.76z M2.97,24.84c0-10.39,7.29-19.11,17.01-21.32v5.75
		c-3.94,1.84-6.68,5.84-6.68,10.48c0,1.82,0.43,3.54,1.17,5.07c-0.74,1.53-1.17,3.24-1.17,5.06c0,4.65,2.74,8.65,6.68,10.49v5.8
		C10.25,43.96,2.97,35.24,2.97,24.84z M24.84,46.73c-0.64,0-1.28-0.03-1.9-0.09v-5.36c0.61,0.11,1.26,0.16,1.9,0.16
		c0.65,0,1.29-0.05,1.91-0.16v5.36C26.13,46.7,25.49,46.73,24.84,46.73z M29.72,46.18v-5.81c3.94-1.84,6.68-5.83,6.68-10.48
		c0-1.82-0.43-3.53-1.17-5.06c0.74-1.53,1.17-3.25,1.17-5.07c0-4.64-2.74-8.64-6.68-10.47V3.52c9.73,2.21,17.01,10.93,17.01,21.32
		C46.73,35.24,39.45,43.96,29.72,46.18z"/>
</g>
</svg>
