<svg id="Warstwa_1" data-name="Warstwa 1" xmlns="http://www.w3.org/2000/svg" viewBox="0 0 195.23 50.46"><defs><style>.cls-1{fill:#1e3d91;}</style></defs><path class="cls-1" d="M50.46,25.23A25.23,25.23,0,0,0,30.18.49a23.1,23.1,0,0,0-3-.41C26.53,0,25.88,0,25.23,0s-1.3,0-1.93.08a24.76,24.76,0,0,0-3,.4,25.24,25.24,0,0,0,0,49.5,24.76,24.76,0,0,0,3,.4c.63.06,1.27.08,1.93.08s1.3,0,1.93-.08a23.1,23.1,0,0,0,3-.41A25.24,25.24,0,0,0,50.46,25.23ZM25.23,3c.65,0,1.3,0,1.93.09V21.85a8.93,8.93,0,0,1,3,1.33,8.53,8.53,0,0,1,2.08,2,8.87,8.87,0,0,1-2.08,2,8.53,8.53,0,0,1-3,1.32v10.3a8.58,8.58,0,0,1-3.86,0V28.55a8.39,8.39,0,0,1-3-1.32,9.11,9.11,0,0,1-2.09-2,8.57,8.57,0,0,1,2.09-2,8.77,8.77,0,0,1,3-1.33V3.1C23.93,3,24.57,3,25.23,3Zm8.45,19.2a11.7,11.7,0,0,0-3.5-2.49V12.88A8.72,8.72,0,0,1,34,20.06,8.56,8.56,0,0,1,33.68,22.21ZM34,30.35a8.69,8.69,0,0,1-3.77,7.17V30.69a11.88,11.88,0,0,0,3.5-2.49A8.39,8.39,0,0,1,34,30.35ZM16.51,20.06a8.73,8.73,0,0,1,3.78-7.18v6.83a11.51,11.51,0,0,0-3.51,2.51A8.64,8.64,0,0,1,16.51,20.06Zm.27,8.13a11.86,11.86,0,0,0,3.51,2.51v6.82a8.69,8.69,0,0,1-3.78-7.17A8.47,8.47,0,0,1,16.78,28.19ZM3,25.23A22.26,22.26,0,0,1,20.29,3.57V9.42a11.73,11.73,0,0,0-5.6,15.79A11.73,11.73,0,0,0,20.29,41v5.89A22.25,22.25,0,0,1,3,25.23ZM25.23,47.45c-.66,0-1.3,0-1.93-.09V41.92a11.72,11.72,0,0,0,3.86,0v5.44C26.53,47.42,25.88,47.45,25.23,47.45Zm4.95-.56V41a11.75,11.75,0,0,0,5.6-15.78A11.87,11.87,0,0,0,37,20.06,11.71,11.71,0,0,0,30.18,9.43V3.57a22.22,22.22,0,0,1,0,43.32Z"/><path class="cls-1" d="M86.37,13,75.63,24.46,64.82,13H63.21V38.15h4.34V21l7.54,8.24h1.12l7.43-8.26V38.15H88V13Z"/><path class="cls-1" d="M113.61,13.08v15c0,4-2.4,6.44-6.41,6.49a6.38,6.38,0,0,1-4.68-1.67,6.6,6.6,0,0,1-1.74-4.82v-15H96.44v15.3c0,6.17,4.32,10.32,10.75,10.32s10.71-4.15,10.71-10.32V13.08Z"/><path class="cls-1" d="M136.2,25.1l-3.33-1.38c-2.19-.9-4.08-1.68-4.08-3.71,0-2.32,2.5-3.38,4.82-3.38a11.62,11.62,0,0,1,6.08,1.92V14.47A13.11,13.11,0,0,0,133,12.65c-4.23,0-8.72,2.58-8.72,7.36,0,3.37,1.49,5.45,4.83,6.74l4,1.55c.82.3,3.38,1.22,3.38,3.23s-1.77,3.11-4.51,3.11a14,14,0,0,1-7.63-2.48v4a13.82,13.82,0,0,0,7.51,2.47c5.33,0,9.35-3.19,9.35-7.4C141.17,28.53,139.54,26.52,136.2,25.1Z"/><path class="cls-1" d="M165.06,16.75V13.16H147.69v25h17.37V34.44H152V27.06h11.52V23.74H152v-7Z"/><path class="cls-1" d="M183.58,13h-2L169.94,38.15h5.14l2-4.86h11l2,4.86h5.14Zm-5.05,16.81,4.07-9.93,4.07,9.93Z"/></svg>