<svg id="Warstwa_1" data-name="Warstwa 1" xmlns="http://www.w3.org/2000/svg" viewBox="0 0 150 90"><defs><style>.cls-1,.cls-2,.cls-3,.cls-4,.cls-6{fill:none;stroke:#1c3c94;}.cls-1,.cls-2,.cls-4,.cls-6{stroke-miterlimit:10;}.cls-1{stroke-width:2px;}.cls-2,.cls-3{stroke-width:0.5px;}.cls-3{stroke-linejoin:bevel;}.cls-5{fill:#1c3c94;}.cls-6{stroke-width:0.25px;}</style></defs><polygon class="cls-1" points="1 51.49 15.75 33.68 90.03 47.92 149.74 44.36 149.74 80.82 15.75 81.5 1 73.91 1 51.49"/><line class="cls-2" x1="90.02" y1="47.93" x2="90.02" y2="81.24"/><line class="cls-2" x1="15.75" y1="33.71" x2="15.75" y2="81.27"/><polyline class="cls-3" points="113.28 81 113.28 61.12 90.03 61.7 97.69 63.28 113.28 63.2"/><path class="cls-2" d="M97.69,63.28V81"/><line class="cls-4" x1="97.86" y1="71.45" x2="113.28" y2="71.45"/><polyline class="cls-2" points="1 68.44 15.75 62.33 90.03 67.75"/><rect class="cls-5" x="97.62" y="71.43" width="15.55" height="9.21"/><polygon class="cls-6" points="2.45 52.3 2.45 53.99 3.44 52.91 3.44 51.05 2.45 52.3"/><polygon class="cls-6" points="2.45 59.15 2.45 61.42 3.44 60.72 3.44 58.36 2.45 59.15"/><polygon class="cls-6" points="2.45 63.63 2.45 65.87 3.38 65.38 3.38 63.07 2.45 63.63"/><polygon class="cls-6" points="4.26 60.14 4.26 62.53 5.74 61.65 5.74 59.1 4.26 60.14"/><polygon class="cls-6" points="4.26 57.71 5.74 56.55 5.74 54.39 4.26 55.72 4.26 57.71"/><polygon class="cls-6" points="4.26 53.81 5.74 52.36 5.74 50.42 4.26 52.02 4.26 53.81"/><polygon class="cls-6" points="3.44 54.62 3.38 56.51 2.45 57.49 2.45 55.6 3.44 54.62"/><polygon class="cls-6" points="6.82 47.15 6.82 49.24 8.79 47.09 8.79 44.83 6.82 47.15"/><polygon class="cls-6" points="6.82 51.29 8.79 49.35 8.79 51.63 6.82 53.41 6.82 51.29"/><polygon class="cls-6" points="6.82 55.69 8.79 54.13 8.79 56.94 6.82 58.33 6.82 55.69"/><polygon class="cls-6" points="6.82 60.99 8.65 59.89 8.79 62.56 6.82 63.59 6.82 60.99"/><polygon class="cls-6" points="9.59 59.33 11.28 58.3 11.28 55.18 9.59 56.38 9.59 59.33"/><polygon class="cls-6" points="9.59 51.05 11.28 49.38 11.28 52.11 9.59 53.41 9.59 51.05"/><polygon class="cls-6" points="9.59 48.57 11.28 46.89 11.28 44.39 9.59 46.23 9.59 48.57"/><polygon class="cls-6" points="12.17 40.85 12.17 43.42 14.29 41.12 14.29 38.35 12.17 40.85"/><polygon class="cls-6" points="12.17 46.02 14.29 43.93 14.29 46.66 12.17 48.57 12.17 46.02"/><polygon class="cls-6" points="12.17 51.46 14.29 49.78 14.29 53.05 12.17 54.62 12.17 51.46"/><polygon class="cls-6" points="12.17 57.71 14.29 56.49 14.29 59.69 12.17 60.82 12.17 57.71"/><polygon class="cls-6" points="17.28 36.8 17.28 39.67 20.17 40.2 20.17 37.36 17.28 36.8"/><polygon class="cls-6" points="17.28 42.55 17.28 45.54 20.17 46 20.17 43.04 17.28 42.55"/><polygon class="cls-6" points="17.28 48.79 17.28 52.11 20.17 52.59 20.17 49.24 17.28 48.79"/><polygon class="cls-6" points="17.28 55.75 17.28 59.04 20.17 59.33 20.08 56.05 17.28 55.75"/><polygon class="cls-6" points="21.71 40.48 21.71 43.3 24.84 43.93 24.84 41.05 21.71 40.48"/><polygon class="cls-6" points="21.71 46.24 21.71 49.24 24.84 49.78 24.84 46.74 21.71 46.24"/><polygon class="cls-6" points="21.71 52.78 21.8 56.23 24.84 56.55 24.84 53.17 21.71 52.78"/><polygon class="cls-6" points="26.12 38.5 26.12 41.28 29.34 41.87 29.34 39.12 26.12 38.5"/><polygon class="cls-6" points="35.32 40.27 35.32 42.95 38.42 43.52 38.42 40.89 35.32 40.27"/><polygon class="cls-6" points="35.32 45.62 35.32 48.4 38.42 48.89 38.42 46.15 35.32 45.62"/><polygon class="cls-6" points="33.79 42.67 33.79 45.36 30.7 44.83 30.7 42.11 33.79 42.67"/><polygon class="cls-6" points="29.34 44.59 29.34 47.45 26.12 46.94 26.12 44.05 29.34 44.59"/><polygon class="cls-6" points="30.7 47.66 33.79 48.15 33.79 51.17 30.7 50.73 30.7 47.66"/><polygon class="cls-6" points="26.28 50.09 29.34 50.53 29.34 53.74 26.28 53.35 26.28 50.09"/><polygon class="cls-6" points="26.28 56.7 26.28 59.85 29.34 60.13 29.34 57.03 26.28 56.7"/><polygon class="cls-6" points="30.7 53.91 30.7 57.17 33.78 57.49 33.78 54.3 30.7 53.91"/><polygon class="cls-6" points="35.32 57.66 35.32 60.67 38.42 60.95 38.42 57.98 35.32 57.66"/><polygon class="cls-6" points="35.32 54.49 38.42 54.88 38.42 51.84 35.32 51.38 35.32 54.49"/><polygon class="cls-6" points="39.87 43.78 39.87 46.39 42.76 46.89 42.76 44.3 39.87 43.78"/><polygon class="cls-6" points="39.87 49.12 39.87 52.05 42.76 52.47 42.76 49.57 39.87 49.12"/><polygon class="cls-6" points="39.87 55.06 42.76 55.42 42.76 58.44 39.87 58.14 39.87 55.06"/><polygon class="cls-6" points="44 58.57 44 61.45 46.83 61.71 46.83 58.87 44 58.57"/><polygon class="cls-6" points="44 55.58 46.83 55.93 46.83 53.06 44 52.65 44 55.58"/><polygon class="cls-6" points="44 49.77 46.83 50.22 46.83 47.57 44 47.1 44 49.77"/><polygon class="cls-6" points="44 44.53 46.83 45 46.83 42.48 44 41.93 44 44.53"/><polygon class="cls-6" points="48.1 45.28 48.1 47.8 50.65 48.23 50.65 45.74 48.1 45.28"/><polygon class="cls-6" points="48.1 50.42 48.1 53.24 50.65 53.61 50.65 50.82 48.1 50.42"/><polygon class="cls-6" points="48.1 56.09 50.65 56.41 50.65 59.27 48.1 59.01 48.1 56.09"/><polygon class="cls-6" points="51.92 59.41 51.92 62.17 54.39 62.39 54.39 59.67 51.92 59.41"/><polygon class="cls-6" points="51.92 56.57 54.39 56.88 54.39 54.15 51.92 53.8 51.92 56.57"/><polygon class="cls-6" points="51.92 51.02 54.39 51.41 54.39 48.87 51.92 48.45 51.92 51.02"/><polygon class="cls-6" points="51.92 45.97 54.39 46.42 54.39 43.93 51.92 43.47 51.92 45.97"/><polygon class="cls-6" points="55.66 46.65 58.04 47.08 58.04 49.49 55.66 49.08 55.66 46.65"/><polygon class="cls-6" points="55.66 51.62 58.04 51.99 58.04 54.68 55.66 54.34 55.66 51.62"/><polygon class="cls-6" points="55.66 57.04 58.04 57.34 58.04 60.05 55.66 59.8 55.66 57.04"/><polygon class="cls-6" points="59.14 44.84 61.42 45.28 61.43 47.7 59.14 47.28 59.14 44.84"/><polygon class="cls-6" points="59.14 49.68 61.43 50.07 61.43 52.53 59.14 52.17 59.14 49.68"/><polygon class="cls-6" points="59.14 54.84 61.43 55.17 61.43 57.76 59.14 57.47 59.14 54.84"/><polygon class="cls-6" points="59.14 60.17 61.43 60.41 61.43 63.03 59.14 62.82 59.14 60.17"/><polygon class="cls-6" points="62.52 47.92 62.52 50.25 64.83 50.64 64.83 48.32 62.52 47.92"/><polygon class="cls-6" points="62.52 52.7 64.83 53.07 64.83 55.66 62.52 55.33 62.52 52.7"/><polygon class="cls-6" points="62.52 57.9 64.83 58.19 64.83 60.77 62.52 60.52 62.52 57.9"/><polygon class="cls-6" points="65.9 60.9 65.9 63.43 68.14 63.63 68.14 61.12 65.9 60.9"/><polygon class="cls-6" points="65.9 58.32 68.14 58.6 68.14 56.14 65.9 55.82 65.9 58.32"/><polygon class="cls-6" points="65.9 53.24 68.14 53.59 68.14 51.21 65.9 50.83 65.9 53.24"/><polygon class="cls-6" points="65.9 48.51 68.14 48.92 68.14 46.57 65.9 46.14 65.9 48.51"/><polygon class="cls-6" points="69.18 49.12 71.61 49.49 71.61 51.8 69.18 51.41 69.18 49.12"/><polygon class="cls-6" points="69.18 53.8 69.18 56.29 71.61 56.64 71.61 54.18 69.18 53.8"/><polygon class="cls-6" points="69.18 58.73 71.61 59.04 71.61 61.48 69.18 61.23 69.18 58.73"/><polygon class="cls-6" points="72.56 47.41 72.56 49.68 74.79 50.13 74.79 47.84 72.56 47.41"/><polygon class="cls-6" points="72.56 52.02 74.79 52.34 74.79 54.65 72.56 54.29 72.56 52.02"/><polygon class="cls-6" points="72.56 56.75 74.79 57.1 74.79 59.44 72.56 59.16 72.56 56.75"/><polygon class="cls-6" points="72.56 61.6 74.79 61.82 74.79 64.23 72.56 64.03 72.56 61.6"/><polygon class="cls-6" points="79.35 48.72 81.73 49.18 81.73 51.39 79.35 50.96 79.35 48.72"/><polygon class="cls-6" points="86.06 50.01 86.06 52.17 88.26 52.58 88.26 50.43 86.06 50.01"/><polygon class="cls-6" points="75.87 50.32 78.25 50.76 78.25 52.93 75.9 52.53 75.87 50.32"/><polygon class="cls-6" points="82.75 51.57 84.95 51.97 84.95 54.07 82.75 53.7 82.75 51.57"/><polygon class="cls-6" points="75.87 59.57 75.87 61.93 78.25 62.18 78.25 59.87 75.87 59.57"/><polygon class="cls-6" points="75.87 57.26 78.25 57.59 78.25 55.19 75.87 54.84 75.87 57.26"/><polygon class="cls-6" points="79.35 62.3 79.35 64.58 81.73 64.86 81.73 62.55 79.35 62.3"/><polygon class="cls-6" points="86.06 63.03 88.26 63.24 88.26 65.45 86.06 65.25 86.06 63.03"/><polygon class="cls-6" points="82.75 62.66 84.95 62.89 84.95 60.71 82.75 60.43 82.75 62.66"/><polygon class="cls-6" points="79.35 60.01 81.73 60.3 81.73 58.09 79.35 57.76 79.35 60.01"/><polygon class="cls-6" points="79.35 55.37 81.73 55.74 81.73 53.52 79.35 53.12 79.35 55.37"/><polygon class="cls-6" points="82.75 55.9 84.95 56.25 84.95 58.6 82.75 58.25 82.75 55.9"/><polygon class="cls-6" points="86.06 54.26 86.06 56.43 88.26 56.75 88.26 54.65 86.06 54.26"/><polygon class="cls-6" points="86.06 58.73 88.26 59.05 88.26 61.12 86.06 60.85 86.06 58.73"/></svg>