<svg id="Warstwa_1" data-name="Warstwa 1" xmlns="http://www.w3.org/2000/svg" viewBox="0 0 150 90"><defs><style>.cls-1,.cls-3,.cls-4,.cls-5,.cls-6,.cls-7{fill:none;}.cls-1,.cls-3,.cls-4,.cls-5{stroke:#1c3c94;}.cls-1,.cls-3{stroke-miterlimit:10;}.cls-1{stroke-width:2px;}.cls-2{fill:#1c3c94;}.cls-3,.cls-4,.cls-5,.cls-7{stroke-width:0.5px;}.cls-4,.cls-6,.cls-7{stroke-linejoin:bevel;}.cls-5{stroke-linejoin:round;}.cls-6,.cls-7{stroke:#d00000;}.cls-6{stroke-width:0.75px;}</style></defs><polygon class="cls-1" points="58.04 83.3 58.04 80.81 81.58 82.06 81.58 83.3 130.49 86.92 147.02 85.57 147.02 43.8 130.72 38.22 81.61 51.2 81.64 67.18 58.04 69.37 58.04 45 32.68 40.18 17.51 52.59 17.51 66.43 15.7 66.43 15.7 62.57 5.51 62.57 2.11 65.26 2.11 80.36 6.42 82.4 18.41 82.4 31.55 83.98 58.04 83.3"/><rect class="cls-2" x="47.62" y="72.96" width="4.08" height="10.51"/><polygon class="cls-2" points="141.6 86.01 139.32 86.01 139.32 70.82 141.6 71.04 141.6 86.01"/><line class="cls-3" x1="32.79" y1="40.96" x2="32.34" y2="83.46"/><line class="cls-3" x1="57.25" y1="70.17" x2="57.25" y2="80.02"/><line class="cls-3" x1="5.74" y1="67.37" x2="5.74" y2="63.34"/><line class="cls-3" x1="15.02" y1="67.13" x2="6.58" y2="67.13"/><line class="cls-3" x1="18.25" y1="67.08" x2="18.25" y2="82.34"/><polyline class="cls-4" points="2.89 68.89 6.58 67.13 6.58 81.67"/><line class="cls-4" x1="130.72" y1="38.92" x2="130.72" y2="86.01"/><line class="cls-4" x1="82.32" y1="81.55" x2="82.32" y2="67.62"/><polyline class="cls-3" points="64.27 37.82 58.72 53.66 58.34 54.55"/><polyline class="cls-3" points="81.13 50.77 81.13 22.01 78.98 21.45 75.34 23.49 75.34 20.54 62.2 15.91 58.04 19.1 58.04 21.35 61.26 30.05 66.27 32.26 74.57 29.87 74.57 67.62"/><polyline class="cls-3" points="62.2 15.91 62.23 18.43 65.57 26.87 74.57 29.87 74.57 24.09 75.77 23.25"/><polyline class="cls-3" points="61.26 30.05 65.57 26.87 67.27 27.41"/><polygon class="cls-5" points="58.04 21.35 62.23 18.43 75.34 22.74 70.83 25.4 58.04 21.35"/><polyline class="cls-5" points="58.04 19.1 70.66 23.3 75.34 20.54"/><line class="cls-3" x1="65.59" y1="17.36" x2="65.81" y2="26.87"/><line class="cls-3" x1="70.69" y1="19.1" x2="61.26" y2="25.4"/><polyline class="cls-3" points="65.59 17.11 61.26 20.17 61.26 28.82 61.26 29.64"/><polyline class="cls-4" points="59.6 25.76 61.26 22.65 64.6 27.47 70.46 20.99 74.57 29.87 61.63 30.05"/><line class="cls-3" x1="67.34" y1="38.22" x2="61.26" y2="69.07"/><polygon class="cls-5" points="78.98 67.62 78.98 21.45 80.74 25.77 78.79 30.3 80.92 36.09 78.98 40.81 80.92 45.71 78.98 49.98 80.73 54.94 78.79 59.4 80.73 64.57 78.98 67.62"/><polygon class="cls-4" points="60.88 39.6 64.27 37.82 74.57 39.26 68.31 41.59 60.88 39.6"/><polyline class="cls-3" points="65.32 35.19 66.27 32.26 65.57 26.87 70.83 25.4"/><ellipse class="cls-6" cx="65.4" cy="37.58" rx="2.73" ry="3.85" transform="translate(-8.7 23.49) rotate(-19.12)"/><line class="cls-7" x1="62.53" y1="36.6" x2="68.27" y2="38.55"/><line class="cls-7" x1="65.25" y1="41.19" x2="65.54" y2="33.96"/><line class="cls-7" x1="63.27" y1="39.45" x2="67.53" y2="35.71"/><line class="cls-7" x1="67.33" y1="40.82" x2="63.47" y2="34.33"/><ellipse class="cls-6" cx="67.55" cy="29.02" rx="2.73" ry="3.85" transform="translate(-5.78 23.72) rotate(-19.12)"/><line class="cls-7" x1="64.68" y1="28.04" x2="70.42" y2="29.99"/><line class="cls-7" x1="67.41" y1="32.63" x2="67.7" y2="25.4"/><line class="cls-7" x1="65.42" y1="30.89" x2="69.68" y2="27.15"/><line class="cls-7" x1="69.48" y1="32.26" x2="65.63" y2="25.77"/><polygon class="cls-5" points="67.92 43.55 66.27 42.6 62.16 44.08 63.27 45.26 67.92 43.55"/><polygon class="cls-4" points="60.78 47.8 65.94 45.66 67.25 46.84 62.23 48.94 60.78 47.8"/><line class="cls-3" x1="64.55" y1="40.96" x2="58.72" y2="60.6"/><polygon class="cls-5" points="59.54 51.31 65.19 49.15 66.56 50.23 61.1 52.57 59.54 51.31"/><polyline class="cls-3" points="61.02 39.41 59.96 36.89 64.02 35.19 74.38 36.72 74.34 39.35"/><polygon class="cls-5" points="58.35 54.73 64.46 52.57 65.94 53.65 60.04 55.98 58.35 54.73"/><polygon class="cls-5" points="57.47 58.15 63.65 55.98 65.14 57.07 59.18 59.4 57.47 58.15"/><polyline class="cls-5" points="57.79 64.74 62.66 62.98 64.01 63.86 57.47 66.83"/><polyline class="cls-5" points="57.21 68.04 62.08 66.28 63.43 67.16 58.04 69.37"/><polyline class="cls-5" points="58.35 61.16 63.22 59.4 64.58 60.28 58.04 63.26 63.22 59.4 59.18 59.4 63.65 55.98 60.04 55.98 64.46 52.57 61.1 52.57 65.19 49.15 62.23 48.94 65.94 45.66 63.27 45.26 66.27 42.6 63.41 40.28"/><path class="cls-5" d="M62.66,63,58,63.26Z"/><path class="cls-5" d="M58.35,66.28,62.66,63Z"/><polyline class="cls-5" points="62.08 66.28 58.35 66.28 61.48 67.96"/><line class="cls-3" x1="67.92" y1="67.96" x2="68.31" y2="41.59"/><polyline class="cls-5" points="73.07 48.94 68.22 47.67 70.69 46.34 74.57 47.31 78.98 45.36 80.92 45.71 76.97 47.67"/><polyline class="cls-5" points="73.07 53.56 68.22 52.28 70.69 50.95 74.57 51.93 78.98 49.98 80.92 50.33 76.97 52.28"/><polyline class="cls-5" points="72.88 58.17 68.03 56.9 70.5 55.57 74.38 56.54 78.79 54.59 80.73 54.94 76.78 56.9"/><polyline class="cls-5" points="72.88 62.98 68.03 61.71 70.5 60.38 74.38 61.35 78.79 59.4 80.73 59.76 76.78 61.71"/><polyline class="cls-5" points="74.38 44.74 68.22 43.12 70.69 41.79 74.57 42.77 78.98 40.81 80.92 41.17 76.97 43.12"/><line class="cls-5" x1="76.91" y1="22.6" x2="76.91" y2="67.62"/><polyline class="cls-5" points="73.07 39.05 72.88 67.8 68.03 66.52 70.5 65.19 74.38 66.17 78.79 64.21 80.73 64.57 76.78 66.52"/><polyline class="cls-5" points="74.57 37.69 78.98 35.73 80.92 36.09 76.97 38.04"/><polyline class="cls-5" points="74.38 27.37 78.8 25.42 80.74 25.77 76.79 27.73 70.35 36.12 76.97 43.12 70.69 50.95 76.91 56.38 70.5 65.19 72.88 67.8"/><polyline class="cls-5" points="74.57 34.32 68.03 32.6 70.5 31.27 74.38 32.25 78.79 30.3 80.73 30.65 76.78 32.6"/><line class="cls-5" x1="68.25" y1="31.5" x2="67.53" y2="35.71"/><polyline class="cls-5" points="74.38 65.75 78.79 59.4 75 55.98 78.98 49.98 74.57 47.31 78.98 40.81 75 37.49 78.79 30.3 75 27.09 78.79 21.91"/><polyline class="cls-4" points="67.92 65.75 70.5 60.38 68.03 56.9 70.35 51.14 68.23 46.91 70.69 41.79 68.95 38.48 62.88 68.39"/><polyline class="cls-4" points="70.69 67.62 70.69 40.71 59.96 36.89 68.31 41.59"/><line class="cls-4" x1="74.57" y1="36.89" x2="70.69" y2="38.58"/><polyline class="cls-3" points="70.69 27.09 70.69 28.46 70.69 19.1"/><polyline class="cls-3" points="64.6 27.47 66.27 30.05 70.69 28.46"/><polyline class="cls-4" points="64.27 37.82 64.02 35.19 70.69 38.59 70.69 30.99 70.69 28.46"/></svg>