<svg id="Warstwa_1" data-name="Warstwa 1" xmlns="http://www.w3.org/2000/svg" viewBox="0 0 150 90"><defs><style>.cls-1{fill:#1c3c94;}.cls-2,.cls-3,.cls-4{fill:none;stroke:#1c3c94;stroke-miterlimit:10;}.cls-2{stroke-width:2px;}.cls-3{stroke-width:0.5px;}</style></defs><path class="cls-1" d="M54,65.48a4.13,4.13,0,0,0-4.13,4.14v9.32l8.26.11V69.62A4.14,4.14,0,0,0,54,65.48Zm0,1a3.17,3.17,0,0,1,3.16,3,1.41,1.41,0,0,1,0,.21v8.46L50.79,78V69.62a1.41,1.41,0,0,1,0-.21A3.15,3.15,0,0,1,54,66.45Z"/><rect class="cls-1" x="50.14" y="69.4" width="7.36" height="9.43"/><path class="cls-1" d="M94.84,65.56a4.15,4.15,0,0,0-4.14,4.13V79l2.76,0,5.51.08V69.69A4.14,4.14,0,0,0,94.84,65.56Zm0,1a3.18,3.18,0,0,1,3.16,3,1.48,1.48,0,0,1,0,.21v8.46l-6.34-.07V69.69a1.48,1.48,0,0,1,0-.21A3.17,3.17,0,0,1,94.84,66.52Z"/><rect class="cls-1" x="91.02" y="69.48" width="7.36" height="9.43"/><path class="cls-1" d="M14,65.46a4.13,4.13,0,0,0-4.14,4.13v9.32L18.1,79V69.59A4.13,4.13,0,0,0,14,65.46Zm0,1a3.17,3.17,0,0,1,3.16,3,1.41,1.41,0,0,1,0,.21v8.46L10.8,78V69.59a1.41,1.41,0,0,1,0-.21A3.15,3.15,0,0,1,14,66.42Z"/><rect class="cls-1" x="10.15" y="69.37" width="7.36" height="9.43"/><path class="cls-1" d="M135.87,65.46a4.13,4.13,0,0,0-4.14,4.13v9.32L140,79V69.59A4.14,4.14,0,0,0,135.87,65.46Zm0,1a3.17,3.17,0,0,1,3.16,3,1.41,1.41,0,0,1,0,.21v8.46L132.69,78V69.59a1.41,1.41,0,0,1,0-.21A3.16,3.16,0,0,1,135.87,66.42Z"/><rect class="cls-1" x="132.05" y="69.37" width="7.36" height="9.43"/><rect class="cls-1" x="5.29" y="71.12" width="3.35" height="7.8"/><rect class="cls-1" x="19.49" y="71.12" width="3.35" height="7.84"/><rect class="cls-1" x="44.7" y="71.12" width="3.35" height="7.84"/><rect class="cls-1" x="58.99" y="71.12" width="3.62" height="7.84"/><rect class="cls-1" x="85.76" y="71.12" width="3.35" height="7.84"/><rect class="cls-1" x="100.4" y="71.12" width="3.35" height="7.84"/><rect class="cls-1" x="126.74" y="71.12" width="3.35" height="7.92"/><rect class="cls-1" x="140.9" y="71.04" width="3.35" height="7.92"/><path class="cls-2" d="M123.58,27.83V52.06l22.26.11V78.84H3.62V52.17l23.54-.11V27.83h.67V24.34H27V21.49H123.6v2.89h-1v3.44Z"/><line class="cls-3" x1="26.53" y1="52.58" x2="124.34" y2="52.58"/><line class="cls-3" x1="23.92" y1="52.81" x2="23.92" y2="79.19"/><line class="cls-3" x1="42.94" y1="52.64" x2="42.94" y2="78.51"/><line class="cls-3" x1="64.34" y1="52.64" x2="64.34" y2="78.17"/><line class="cls-3" x1="84.55" y1="52.98" x2="84.55" y2="78.51"/><line class="cls-3" x1="104.58" y1="52.64" x2="104.58" y2="78.68"/><line class="cls-3" x1="125.13" y1="52.64" x2="125.13" y2="79.02"/><line class="cls-4" x1="27.83" y1="24.89" x2="27.83" y2="26.92"/><line class="cls-4" x1="122.75" y1="24.89" x2="122.75" y2="26.92"/><path class="cls-1" d="M8.28,65.63v3H5.5v-3H8.28m.25-.25H5.25v3.51H8.53V65.38Z"/><path class="cls-1" d="M8.39,57.14v6H5.5v-6H8.39m.25-.25H5.25v6.45H8.64V56.89Z"/><path class="cls-1" d="M22.43,65.51v3.13H19.76V65.51h2.67m.25-.25H19.51v3.63h3.17V65.26Z"/><path class="cls-1" d="M22.32,57v6H19.65V57h2.67m.25-.25H19.4v6.46h3.17V56.77Z"/><path class="cls-1" d="M15.24,57v6H12.57V57h2.67m.25-.25H12.32v6.46h3.17V56.79Z"/><path class="cls-1" d="M47.45,57.14V63H44.78V57.14h2.67m.25-.25H44.53v6.34H47.7V56.89Z"/><path class="cls-1" d="M62.05,57.14v6H59.27v-6h2.78m.25-.25H59v6.45H62.3V56.89Z"/><path class="cls-1" d="M62.17,65.51v3.13h-2.9V65.51h2.9m.25-.25H59v3.63h3.4V65.26Z"/><path class="cls-1" d="M47.45,65.51v3.24H44.89V65.51h2.56m.25-.25H44.64V69H47.7V65.26Z"/><path class="cls-1" d="M88.77,65.51v3.13h-2.9V65.51h2.9m.25-.25h-3.4v3.63H89V65.26Z"/><path class="cls-1" d="M88.77,57.14v6h-2.9v-6h2.9m.25-.25h-3.4v6.45H89V56.89Z"/><path class="cls-1" d="M103.26,57.14v6h-2.78v-6h2.78m.25-.25h-3.28v6.45h3.28V56.89Z"/><path class="cls-1" d="M103.26,65.51v3.24h-2.78V65.51h2.78m.25-.25h-3.28V69h3.28V65.26Z"/><path class="cls-1" d="M129.75,65.51v3.13H127V65.51h2.78m.25-.25h-3.28v3.63H130V65.26Z"/><path class="cls-1" d="M143.67,65.63v3H141v-3h2.67m.25-.25h-3.17v3.51h3.17V65.38Z"/><path class="cls-1" d="M129.75,57.14v6h-2.9v-6h2.9m.25-.25h-3.4v6.45H130V56.89Z"/><path class="cls-1" d="M143.67,57.14v6H141v-6h2.67m.25-.25h-3.17v6.45h3.17V56.89Z"/><path class="cls-1" d="M55,57.14v6H52.36v-6H55m.25-.25H52.11v6.45h3.17V56.89Z"/><path class="cls-1" d="M96,57.14v6H93.34v-6H96m.25-.25H93.09v6.45h3.17V56.89Z"/><path class="cls-1" d="M137.13,57.1v5.95h-2.67V57.1h2.67m.25-.25h-3.17V63.3h3.17V56.85Z"/><path class="cls-1" d="M29,57.12v6h-2.9v-6H29m.25-.25h-3.4v6.45h3.4V56.87Z"/><path class="cls-1" d="M40.9,57v6H38.23V57H40.9m.25-.25H38v6.46h3.17V56.75Z"/><path class="cls-1" d="M34.83,57v6H32.16V57h2.67m.25-.25H31.91v6.46h3.17V56.77Z"/><path class="cls-1" d="M70,57.31v5.95H67.12V57.31H70m.25-.25H66.87v6.45h3.39V57.06Z"/><path class="cls-1" d="M81.94,57.19v6H79.27v-6h2.67m.25-.25H79V63.4h3.17V56.94Z"/><path class="cls-1" d="M75.86,57.21v6H73.19v-6h2.67m.25-.25H72.94v6.46h3.17V57Z"/><path class="cls-1" d="M110.2,57.31v5.95h-2.89V57.31h2.89m.25-.25h-3.39v6.45h3.39V57.06Z"/><path class="cls-1" d="M122.13,57.19v6h-2.67v-6h2.67m.25-.25h-3.17V63.4h3.17V56.94Z"/><path class="cls-1" d="M116.05,57.21v6h-2.67v-6h2.67m.25-.25h-3.17v6.46h3.17V57Z"/><path class="cls-1" d="M28.74,65.53v3.12H26.07V65.53h2.67m.25-.25H25.82V68.9H29V65.28Z"/><path class="cls-1" d="M34.94,65.53v3.12H32.27V65.53h2.67m.25-.25H32V68.9h3.17V65.28Z"/><path class="cls-1" d="M40.88,65.53v3.12H38.21V65.53h2.67m.25-.25H38V68.9h3.17V65.28Z"/><path class="cls-1" d="M28.74,71.32v3.12H26.07V71.32h2.67m.25-.25H25.82v3.62H29V71.07Z"/><path class="cls-1" d="M34.85,71.32v3.12H32.18V71.32h2.67m.25-.25H31.93v3.62H35.1V71.07Z"/><path class="cls-1" d="M40.8,71.32v3.12H38.13V71.32H40.8m.25-.25H37.88v3.62h3.17V71.07Z"/><path class="cls-1" d="M69.83,65.57v3.12H67.17V65.57h2.66m.25-.25H66.92v3.62h3.16V65.32Z"/><path class="cls-1" d="M76,65.57v3.12H73.36V65.57H76m.25-.25H73.11v3.62h3.17V65.32Z"/><path class="cls-1" d="M82,65.57v3.12H79.31V65.57H82m.25-.25H79.06v3.62h3.17V65.32Z"/><path class="cls-1" d="M69.83,71.36v3.13H67.17V71.36h2.66m.25-.25H66.92v3.63h3.16V71.11Z"/><path class="cls-1" d="M76,71.36v3.13H73.28V71.36H76m.25-.25H73v3.63H76.2V71.11Z"/><path class="cls-1" d="M81.89,71.36v3.13H79.22V71.36h2.67m.25-.25H79v3.63h3.17V71.11Z"/><path class="cls-1" d="M110,65.6v3.13h-2.67V65.6H110m.25-.25h-3.17V69h3.17V65.35Z"/><path class="cls-1" d="M116.24,65.6v3.13h-2.67V65.6h2.67m.25-.25h-3.17V69h3.17V65.35Z"/><path class="cls-1" d="M122.18,65.6v3.13h-2.67V65.6h2.67m.25-.25h-3.17V69h3.17V65.35Z"/><path class="cls-1" d="M110,71.4v3.12h-2.67V71.4H110m.25-.25h-3.17v3.62h3.17V71.15Z"/><path class="cls-1" d="M116.15,71.4v3.12h-2.67V71.4h2.67m.25-.25h-3.17v3.62h3.17V71.15Z"/><path class="cls-1" d="M122.09,71.4v3.12h-2.67V71.4h2.67m.25-.25h-3.17v3.62h3.17V71.15Z"/><path class="cls-1" d="M107.2,32.13v5.95h-2.9V32.13h2.9m.25-.25h-3.4v6.45h3.4V31.88Z"/><path class="cls-1" d="M119.12,32V38h-2.67V32h2.67m.25-.25H116.2v6.45h3.17V31.77Z"/><path class="cls-1" d="M113,32v6h-2.66V32H113m.25-.25h-3.17v6.45h3.17V31.79Z"/><path class="cls-1" d="M107,40.43v3.12h-2.67V40.43H107m.25-.25h-3.17V43.8h3.17V40.18Z"/><path class="cls-1" d="M113.23,40.43v3.12h-2.67V40.43h2.67m.25-.25h-3.17V43.8h3.17V40.18Z"/><path class="cls-1" d="M119.17,40.43v3.12H116.5V40.43h2.67m.25-.25h-3.17V43.8h3.17V40.18Z"/><path class="cls-1" d="M107,46.22v3.12h-2.67V46.22H107m.25-.25h-3.17v3.62h3.17V46Z"/><path class="cls-1" d="M113.14,46.22v3.12h-2.67V46.22h2.67m.25-.25h-3.17v3.62h3.17V46Z"/><path class="cls-1" d="M119.09,46.22v3.12h-2.67V46.22h2.67m.25-.25h-3.17v3.62h3.17V46Z"/><path class="cls-1" d="M88.71,32.09V38h-2.9V32.09h2.9m.25-.25h-3.4v6.45H89V31.84Z"/><path class="cls-1" d="M100.63,32v5.95H98V32h2.67m.25-.25H97.71v6.45h3.17V31.73Z"/><path class="cls-1" d="M94.55,32v6H91.88V32h2.67m.25-.25H91.63V38.2H94.8V31.75Z"/><path class="cls-1" d="M88.54,40.39v3.12H85.87V40.39h2.67m.25-.25H85.62v3.62h3.17V40.14Z"/><path class="cls-1" d="M94.74,40.39v3.12H92.07V40.39h2.67m.25-.25H91.82v3.62H95V40.14Z"/><path class="cls-1" d="M100.68,40.39v3.12H98V40.39h2.67m.25-.25H97.76v3.62h3.17V40.14Z"/><path class="cls-1" d="M88.54,46.18V49.3H85.87V46.18h2.67m.25-.25H85.62v3.62h3.17V45.93Z"/><path class="cls-1" d="M94.65,46.18V49.3H92V46.18h2.67m.25-.25H91.73v3.62H94.9V45.93Z"/><path class="cls-1" d="M100.6,46.18V49.3H97.93V46.18h2.67m.25-.25H97.68v3.62h3.17V45.93Z"/><path class="cls-1" d="M70.59,32.21v5.95H67.7V32.21h2.89m.25-.25H67.45v6.45h3.39V32Z"/><path class="cls-1" d="M82.52,32.09V38H79.85V32.09h2.67m.25-.25H79.6v6.45h3.17V31.84Z"/><path class="cls-1" d="M76.44,32.11v6H73.77v-6h2.67m.25-.25H73.52v6.45h3.17V31.86Z"/><path class="cls-1" d="M70.43,40.5v3.12H67.76V40.5h2.67m.25-.25H67.51v3.63h3.17V40.25Z"/><path class="cls-1" d="M76.62,40.5v3.12H74V40.5h2.66m.26-.25H73.71v3.63h3.17V40.25Z"/><path class="cls-1" d="M82.57,40.5v3.12H79.9V40.5h2.67m.25-.25H79.65v3.63h3.17V40.25Z"/><path class="cls-1" d="M70.43,46.29v3.13H67.76V46.29h2.67m.25-.25H67.51v3.63h3.17V46Z"/><path class="cls-1" d="M76.54,46.29v3.13H73.87V46.29h2.67m.25-.25H73.62v3.63h3.17V46Z"/><path class="cls-1" d="M82.48,46.29v3.13H79.81V46.29h2.67m.25-.25H79.56v3.63h3.17V46Z"/><path class="cls-1" d="M52.25,32.09V38H49.36V32.09h2.89m.25-.25H49.11v6.45H52.5V31.84Z"/><path class="cls-1" d="M64.18,32v5.95H61.51V32h2.67m.25-.25H61.26v6.45h3.17V31.73Z"/><path class="cls-1" d="M58.1,32v6H55.43V32H58.1m.25-.25H55.18V38.2h3.17V31.75Z"/><path class="cls-1" d="M52.09,40.39v3.12H49.42V40.39h2.67m.25-.25H49.17v3.62h3.17V40.14Z"/><path class="cls-1" d="M58.29,40.39v3.12H55.62V40.39h2.67m.25-.25H55.37v3.62h3.17V40.14Z"/><path class="cls-1" d="M64.23,40.39v3.12H61.56V40.39h2.67m.25-.25H61.31v3.62h3.17V40.14Z"/><path class="cls-1" d="M52.09,46.18V49.3H49.42V46.18h2.67m.25-.25H49.17v3.62h3.17V45.93Z"/><path class="cls-1" d="M58.2,46.18V49.3H55.53V46.18H58.2m.25-.25H55.28v3.62h3.17V45.93Z"/><path class="cls-1" d="M64.14,46.18V49.3H61.47V46.18h2.67m.25-.25H61.22v3.62h3.17V45.93Z"/><path class="cls-1" d="M34.25,32.21v5.95H31.36V32.21h2.89M34.5,32H31.11v6.45H34.5V32Z"/><path class="cls-1" d="M46.18,32.09V38H43.51V32.09h2.67m.25-.25H43.26v6.45h3.17V31.84Z"/><path class="cls-1" d="M40.1,32.11v6H37.43v-6H40.1m.25-.25H37.18v6.45h3.17V31.86Z"/><path class="cls-1" d="M34.09,40.5v3.12H31.42V40.5h2.67m.25-.25H31.17v3.63h3.17V40.25Z"/><path class="cls-1" d="M40.29,40.5v3.12H37.62V40.5h2.67m.25-.25H37.37v3.63h3.17V40.25Z"/><path class="cls-1" d="M46.23,40.5v3.12H43.56V40.5h2.67m.25-.25H43.31v3.63h3.17V40.25Z"/><path class="cls-1" d="M34.09,46.29v3.13H31.42V46.29h2.67m.25-.25H31.17v3.63h3.17V46Z"/><path class="cls-1" d="M40.2,46.29v3.13H37.53V46.29H40.2m.25-.25H37.28v3.63h3.17V46Z"/><path class="cls-1" d="M46.14,46.29v3.13H43.47V46.29h2.67m.25-.25H43.22v3.63h3.17V46Z"/><path class="cls-1" d="M106.77,26v2.13H104.1V26h2.67m.25-.25h-3.17v2.63H107V25.73Z"/><path class="cls-1" d="M113,26v2.13H110.3V26H113m.25-.25h-3.17v2.63h3.17V25.73Z"/><path class="cls-1" d="M118.92,26v2.13h-2.67V26h2.67m.25-.25H116v2.63h3.17V25.73Z"/><path class="cls-1" d="M88.28,26v2.13H85.61V26h2.67m.25-.25H85.36v2.63h3.17V25.7Z"/><path class="cls-1" d="M94.48,26v2.13H91.81V26h2.67m.25-.25H91.56v2.63h3.17V25.7Z"/><path class="cls-1" d="M100.42,26v2.13H97.75V26h2.67m.25-.25H97.5v2.63h3.17V25.7Z"/><path class="cls-1" d="M70.17,26v2.14H67.5V26h2.67m.25-.25H67.25v2.64h3.17V25.78Z"/><path class="cls-1" d="M76.37,26v2.14H73.7V26h2.67m.25-.25H73.45v2.64h3.17V25.78Z"/><path class="cls-1" d="M82.31,26v2.14H79.64V26h2.67m.25-.25H79.39v2.64h3.17V25.78Z"/><path class="cls-1" d="M51.83,26v2.13H49.16V26h2.67m.25-.25H48.91v2.63h3.17V25.7Z"/><path class="cls-1" d="M58,26v2.13H55.36V26H58m.25-.25H55.11v2.63h3.17V25.7Z"/><path class="cls-1" d="M64,26v2.13H61.3V26H64m.25-.25H61.05v2.63h3.17V25.7Z"/><path class="cls-1" d="M33.83,26v2.14H31.16V26h2.67m.25-.25H30.91v2.64h3.17V25.78Z"/><path class="cls-1" d="M40,26v2.14H37.36V26H40m.25-.25H37.11v2.64h3.17V25.78Z"/><path class="cls-1" d="M46,26v2.14H43.3V26H46m.25-.25H43.05v2.64h3.17V25.78Z"/><line class="cls-3" x1="27.66" y1="28.36" x2="122.75" y2="28.36"/><line class="cls-3" x1="27.83" y1="23.7" x2="122.92" y2="23.7"/></svg>