<svg id="Warstwa_1" data-name="Warstwa 1" xmlns="http://www.w3.org/2000/svg" viewBox="0 0 150 90"><defs><style>.cls-1,.cls-2,.cls-3,.cls-6{fill:none;}.cls-1,.cls-2,.cls-3,.cls-4,.cls-5,.cls-6{stroke:#1c3c94;stroke-miterlimit:10;}.cls-1{stroke-width:2px;}.cls-3{stroke-width:0.25px;}.cls-4,.cls-5{fill:#fff;}.cls-4,.cls-6{stroke-width:0.75px;}</style></defs><polygon class="cls-1" points="78.34 85.25 23.83 81 23.83 66.06 78.34 15.45 126.74 63.68 126.74 80.15 115.53 81.51 103.3 80.83 102.79 82.7 78.34 85.25"/><path class="cls-2" d="M115.53,81.51l-6.9-32.71a2.68,2.68,0,0,0-.82-1.45l-6-5.49a.37.37,0,0,0-.63.32c.62,4.78,3.17,24.51,3.37,25.8.23,1.47-.34,5.1-2,13.53"/><line class="cls-3" x1="26.26" y1="64.18" x2="26.26" y2="81.14"/><line class="cls-3" x1="28.08" y1="63.17" x2="28.08" y2="81.13"/><line class="cls-3" x1="29.88" y1="60.79" x2="29.88" y2="80.63"/><line class="cls-3" x1="31.69" y1="58.87" x2="31.69" y2="81.13"/><line class="cls-3" x1="33.56" y1="57.91" x2="33.56" y2="80.98"/><line class="cls-3" x1="35.37" y1="56.04" x2="35.37" y2="80.97"/><line class="cls-3" x1="37.17" y1="54.76" x2="37.17" y2="81.5"/><line class="cls-3" x1="38.99" y1="52.73" x2="38.99" y2="81.48"/><polygon class="cls-4" points="30.13 64.83 33.3 62.16 33.3 65.56 30.13 67.49 30.13 64.83"/><line class="cls-3" x1="40.93" y1="51.23" x2="40.93" y2="82.16"/><line class="cls-3" x1="42.74" y1="49.25" x2="42.74" y2="82.14"/><line class="cls-3" x1="44.54" y1="47.37" x2="44.54" y2="81.64"/><line class="cls-3" x1="46.35" y1="45.85" x2="46.35" y2="82.14"/><line class="cls-3" x1="48.23" y1="44.24" x2="48.23" y2="81.99"/><line class="cls-3" x1="50.04" y1="42.57" x2="50.04" y2="81.98"/><line class="cls-3" x1="51.84" y1="40.67" x2="51.84" y2="82.51"/><line class="cls-3" x1="53.65" y1="38.05" x2="53.65" y2="82.5"/><line class="cls-3" x1="55.49" y1="37.19" x2="55.49" y2="82.8"/><line class="cls-3" x1="57.29" y1="35.41" x2="57.29" y2="83.33"/><line class="cls-3" x1="59.11" y1="34.15" x2="59.11" y2="83.32"/><line class="cls-3" x1="61.05" y1="32" x2="61.05" y2="83.99"/><line class="cls-3" x1="62.86" y1="30.57" x2="62.86" y2="83.98"/><line class="cls-3" x1="64.66" y1="28.78" x2="64.66" y2="83.47"/><line class="cls-3" x1="66.47" y1="27.31" x2="66.47" y2="83.46"/><line class="cls-3" x1="68.35" y1="25.35" x2="68.35" y2="83.82"/><line class="cls-3" x1="70.42" y1="23.59" x2="70.42" y2="83.46"/><line class="cls-3" x1="72.37" y1="22.47" x2="72.37" y2="84.61"/><line class="cls-3" x1="74.24" y1="20.56" x2="74.24" y2="84.42"/><line class="cls-3" x1="76.1" y1="17.68" x2="76.1" y2="83.24"/><line class="cls-3" x1="124.57" y1="60.79" x2="124.57" y2="80.99"/><line class="cls-3" x1="122.69" y1="59.23" x2="122.69" y2="81.35"/><line class="cls-3" x1="120.88" y1="57.4" x2="120.88" y2="81.34"/><line class="cls-3" x1="119.08" y1="55.46" x2="119.08" y2="81.87"/><line class="cls-3" x1="117.27" y1="54.27" x2="117.27" y2="81.86"/><line class="cls-3" x1="115.33" y1="52.24" x2="115.33" y2="82.53"/><line class="cls-3" x1="113.51" y1="50.54" x2="113.51" y2="71.95"/><line class="cls-3" x1="111.71" y1="48.59" x2="111.71" y2="62.87"/><line class="cls-3" x1="109.9" y1="46.92" x2="109.9" y2="55.1"/><line class="cls-3" x1="108.03" y1="45.36" x2="108.03" y2="47.37"/><line class="cls-3" x1="106.22" y1="44" x2="106.22" y2="45.85"/><line class="cls-3" x1="102.6" y1="53.43" x2="102.6" y2="82.87"/><line class="cls-3" x1="100.76" y1="38.06" x2="100.76" y2="83.16"/><line class="cls-3" x1="98.95" y1="36.7" x2="98.95" y2="83.15"/><line class="cls-3" x1="97.15" y1="35.14" x2="97.15" y2="83.68"/><line class="cls-3" x1="95.34" y1="33.36" x2="95.34" y2="83.66"/><line class="cls-3" x1="93.39" y1="31.52" x2="93.39" y2="84.33"/><line class="cls-3" x1="91.58" y1="28.78" x2="91.58" y2="84.32"/><line class="cls-3" x1="89.78" y1="27.67" x2="89.78" y2="83.82"/><line class="cls-3" x1="87.97" y1="25.9" x2="87.97" y2="84.32"/><line class="cls-3" x1="86.1" y1="23.94" x2="86.1" y2="84.17"/><line class="cls-3" x1="84.29" y1="22.21" x2="84.29" y2="84.16"/><line class="cls-3" x1="82.48" y1="19.78" x2="82.48" y2="84.69"/><line class="cls-3" x1="80.67" y1="17.41" x2="80.67" y2="84.68"/><line class="cls-3" x1="78.88" y1="16.66" x2="78.88" y2="84.87"/><line class="cls-3" x1="77.97" y1="17.02" x2="77.97" y2="84.85"/><polygon class="cls-5" points="49.13 79.13 78.08 50.52 92.43 79.13 78.34 79.13 49.13 79.13"/><line class="cls-6" x1="78" y1="51.23" x2="78.34" y2="79.13"/><line class="cls-6" x1="65.59" y1="62.87" x2="65.59" y2="79.13"/><line class="cls-6" x1="59.43" y1="71.66" x2="59.43" y2="79.13"/><polyline class="cls-6" points="56.11 78.91 56.11 72.24 78.17 68.6 87.97 70.24"/><line class="cls-6" x1="71.48" y1="57.05" x2="71.48" y2="69.85"/><line class="cls-6" x1="80.15" y1="59.43" x2="80.15" y2="68.94"/><line class="cls-6" x1="82.08" y1="69.34" x2="82.08" y2="79.13"/><line class="cls-6" x1="65.59" y1="67.42" x2="71.48" y2="66.17"/><polyline class="cls-6" points="71.48 60.79 78.09 58.87 82.99 60.3"/><line class="cls-2" x1="78.34" y1="15.45" x2="78.34" y2="51.23"/><line class="cls-2" x1="78.34" y1="85.25" x2="78.34" y2="79.13"/><line class="cls-3" x1="104.42" y1="42" x2="104.42" y2="43.85"/><line class="cls-3" x1="102.6" y1="40.72" x2="102.6" y2="42.57"/></svg>