<svg id="Warstwa_1" data-name="Warstwa 1" xmlns="http://www.w3.org/2000/svg" viewBox="0 0 150 90"><defs><style>.cls-1,.cls-2,.cls-3,.cls-4,.cls-5{fill:none;stroke:#1c3c94;stroke-miterlimit:10;}.cls-1{stroke-width:2px;}.cls-2{stroke-width:0.75px;}.cls-3{stroke-width:0.5px;}.cls-4,.cls-5{stroke-width:0.25px;}.cls-5{stroke-linecap:round;}</style></defs><path class="cls-1" d="M98.15,80.58,78.68,84,34.3,78.66V48.21L32.6,46l1.93-1V43.91L77.89,14.13l8.37,6.57,8.38-4.53,24.23,24.68-1.23.22a2.36,2.36,0,0,0-1.94,2.32l.17,3.63h1.24l5.39,4.55-1.37,1.85v23.2l-4.3.68.11,1.36-4.64,1L104,79l-5.88.67Z"/><polyline class="cls-2" points="78.68 83.98 78.68 24.15 96.24 36.04 96.24 70 97.15 70.85 97.15 80.02"/><polyline class="cls-2" points="85.25 20.65 101.26 33.6 101.26 34.11 96.24 36.04"/><polyline class="cls-3" points="34.3 48.21 78.68 24.15 77.97 21.49 77.89 14.13"/><polygon class="cls-4" points="86.09 49.45 86.09 67.37 92.92 67.88 92.92 51.91 86.09 49.45"/><polygon class="cls-4" points="86.09 44.36 92.92 47.41 92.92 40.2 86.09 36.38 86.09 44.36"/><polyline class="cls-4" points="33.82 46.6 77.95 19.79 99.22 34.9"/><polyline class="cls-4" points="34.3 47.41 77.97 21.49 98.14 35.31"/><polyline class="cls-4" points="34.54 45.34 77.93 17.74 100.38 34.45"/><polyline class="cls-4" points="90.88 25.31 93.4 24.15 115.08 42.26"/><polyline class="cls-4" points="91.9 26.13 93.45 25.34 115.36 43.45"/><polyline class="cls-4" points="116.49 40.34 94.42 18.49 87.18 22.36"/><path class="cls-3" d="M94.58,16.74l-.16,1.75s-1,1.53-1,5.66,0,3.17,0,3.17"/><polyline class="cls-4" points="96.24 58.06 116.49 63.66 116.21 64.17 115.64 64.62 115.64 76.62"/><polyline class="cls-4" points="96.24 58.96 116.21 64.17 116.21 71.13"/><line class="cls-4" x1="96.24" y1="59.98" x2="115.64" y2="64.62"/><line class="cls-4" x1="115.64" y1="66.43" x2="96.24" y2="62.53"/><line class="cls-4" x1="96.24" y1="63.43" x2="115.64" y2="66.94"/><line class="cls-4" x1="96.36" y1="27.75" x2="96.36" y2="29.69"/><polyline class="cls-4" points="34.3 73.23 78.68 72.77 97.15 72.77 97.15 72.21 78.68 71.64 34.3 72.43"/><line class="cls-4" x1="37.64" y1="48.94" x2="37.64" y2="72.37"/><line class="cls-4" x1="38.83" y1="48.43" x2="38.83" y2="72.31"/><line class="cls-4" x1="41.26" y1="47.15" x2="41.26" y2="72.31"/><line class="cls-4" x1="42.74" y1="46.48" x2="42.74" y2="72.28"/><line class="cls-4" x1="45.45" y1="45" x2="45.45" y2="72.23"/><line class="cls-4" x1="47.21" y1="44.23" x2="47.21" y2="72.2"/><line class="cls-4" x1="50.46" y1="42.63" x2="50.46" y2="72.14"/><line class="cls-4" x1="52.67" y1="41.61" x2="52.67" y2="72.02"/><line class="cls-4" x1="56.79" y1="39.4" x2="56.79" y2="72.02"/><line class="cls-4" x1="59.46" y1="38.29" x2="59.46" y2="71.97"/><line class="cls-4" x1="64.13" y1="35.89" x2="64.13" y2="71.87"/><line class="cls-4" x1="67.74" y1="34.18" x2="67.74" y2="71.87"/><polyline class="cls-4" points="73.64 31.17 73.64 71.64 72.91 72.83 72.91 82.74"/><polyline class="cls-4" points="85.81 71.86 85.81 70.68 78.68 70.4 73.64 70.4"/><polyline class="cls-4" points="34.3 50.59 78.68 28.72 82.07 30.74 96.24 39.21"/><line class="cls-4" x1="93.74" y1="71.97" x2="93.74" y2="37.89"/><line class="cls-4" x1="97.15" y1="71.13" x2="93.74" y2="71.13"/><line class="cls-4" x1="93.74" y1="70.06" x2="96.24" y2="70.06"/><polyline class="cls-4" points="73.64 69.77 78.68 69.77 85.25 69.77 85.81 70.68"/><line class="cls-4" x1="85.04" y1="32.52" x2="85.25" y2="69.77"/><polyline class="cls-4" points="82.13 30.74 82.13 71.64 83.58 72.77 83.58 83.13"/><line class="cls-4" x1="85.15" y1="46.6" x2="93.74" y2="50.09"/><line class="cls-4" x1="82.13" y1="36.38" x2="85.04" y2="37.89"/><line class="cls-4" x1="93.74" y1="42.83" x2="96.24" y2="44.13"/><line class="cls-5" x1="82.75" y1="36.7" x2="82.75" y2="69.77"/><line class="cls-5" x1="83.58" y1="37.13" x2="83.58" y2="69.77"/><line class="cls-5" x1="84.42" y1="37.57" x2="84.42" y2="69.77"/><line class="cls-5" x1="94.57" y1="43.45" x2="94.57" y2="70.06"/><line class="cls-5" x1="95.41" y1="43.81" x2="95.41" y2="70.06"/><line class="cls-4" x1="36.23" y1="49.64" x2="36.23" y2="72.37"/><polygon class="cls-4" points="72.91 38.07 68.5 39.94 68.5 34.4 72.91 32.23 72.91 38.07"/><polygon class="cls-4" points="63.62 42.05 60.02 43.54 60 38.59 63.6 36.77 63.62 42.05"/><polygon class="cls-4" points="56.31 45.06 53.13 46.38 53.11 42 56.29 40.39 56.31 45.06"/><polygon class="cls-4" points="50.05 47.77 47.66 48.79 47.65 44.53 50.04 43.38 50.05 47.77"/><polygon class="cls-4" points="45.07 49.8 43.13 50.63 43.13 46.7 45.06 45.77 45.07 49.8"/><polygon class="cls-4" points="40.87 51.58 39.27 52.26 39.25 48.59 40.84 47.82 40.87 51.58"/><polygon class="cls-4" points="37.31 53.24 36.58 53.49 36.56 49.92 37.29 49.58 37.31 53.24"/><polygon class="cls-4" points="72.92 54.33 68.49 55.4 68.49 44.55 72.92 42.93 72.92 54.33"/><polygon class="cls-4" points="72.92 71.73 68.49 71.83 68.49 62.37 72.92 61.72 72.92 71.73"/><polygon class="cls-4" points="63.58 56.52 60.01 57.36 60.01 47.64 63.58 46.36 63.58 56.52"/><polygon class="cls-4" points="56.32 58.22 53.19 58.92 53.19 50.22 56.32 49.04 56.32 58.22"/><polygon class="cls-4" points="49.99 59.72 47.66 60.21 47.66 52.25 49.99 51.36 49.99 59.72"/><polygon class="cls-4" points="45.07 60.86 43.09 61.31 43.09 53.98 45.07 53.24 45.07 60.86"/><polygon class="cls-4" points="40.87 61.83 39.21 62.19 39.21 55.34 40.87 54.79 40.87 61.83"/><polygon class="cls-4" points="37.29 62.67 36.56 62.84 36.56 56.3 37.29 56.03 37.29 62.67"/><polygon class="cls-4" points="63.58 71.91 60.01 71.91 60.01 63.53 63.58 63.02 63.58 71.91"/><polygon class="cls-4" points="56.35 72.04 53.19 72.04 53.19 64.58 56.32 64.13 56.35 72.04"/><polygon class="cls-4" points="49.99 72.14 47.66 72.14 47.66 65.43 49.99 65.09 49.99 72.14"/><polygon class="cls-4" points="45.07 72.23 43.09 72.23 43.09 66.01 45.07 65.77 45.07 72.23"/><polygon class="cls-4" points="40.87 72.32 39.21 72.32 39.2 66.66 40.86 66.4 40.87 72.32"/><polygon class="cls-4" points="37.23 72.37 36.56 72.37 36.56 67.11 37.23 66.99 37.23 72.37"/><line class="cls-4" x1="67.74" y1="61.72" x2="73.64" y2="60.82"/><line class="cls-4" x1="59.46" y1="63.02" x2="64.13" y2="62.3"/><line class="cls-4" x1="52.67" y1="64.09" x2="56.79" y2="63.43"/><line class="cls-4" x1="47.21" y1="64.94" x2="50.46" y2="64.43"/><line class="cls-4" x1="42.74" y1="65.63" x2="45.45" y2="65.21"/><line class="cls-4" x1="38.83" y1="66.24" x2="41.26" y2="65.86"/><line class="cls-4" x1="36.23" y1="66.65" x2="37.64" y2="66.42"/><line class="cls-4" x1="36.23" y1="62.93" x2="37.64" y2="62.6"/><line class="cls-4" x1="38.83" y1="62.32" x2="41.26" y2="61.72"/><line class="cls-4" x1="42.74" y1="61.41" x2="45.45" y2="60.77"/><line class="cls-4" x1="47.21" y1="60.36" x2="50.46" y2="59.6"/><line class="cls-4" x1="52.67" y1="59.08" x2="56.79" y2="58.12"/><line class="cls-4" x1="59.46" y1="57.49" x2="64.13" y2="56.4"/><line class="cls-4" x1="67.74" y1="55.56" x2="73.64" y2="54.18"/><line class="cls-4" x1="73.64" y1="41.95" x2="67.74" y2="44.17"/><line class="cls-4" x1="64.13" y1="45.53" x2="59.46" y2="47.28"/><line class="cls-4" x1="56.79" y1="48.29" x2="52.67" y2="49.84"/><line class="cls-4" x1="50.46" y1="50.67" x2="47.21" y2="51.89"/><line class="cls-4" x1="45.45" y1="52.55" x2="42.74" y2="53.58"/><line class="cls-4" x1="41.26" y1="54.18" x2="38.83" y2="55.05"/><line class="cls-4" x1="37.64" y1="55.49" x2="36.2" y2="56.03"/><line class="cls-4" x1="36.23" y1="53.65" x2="37.69" y2="53.03"/><line class="cls-4" x1="38.83" y1="52.55" x2="41.19" y2="51.54"/><line class="cls-4" x1="42.74" y1="50.88" x2="45.45" y2="49.73"/><line class="cls-4" x1="47.21" y1="49.04" x2="50.46" y2="47.6"/><line class="cls-4" x1="52.67" y1="46.66" x2="56.79" y2="44.92"/><line class="cls-4" x1="59.46" y1="43.78" x2="64.13" y2="41.8"/><line class="cls-4" x1="67.74" y1="40.27" x2="73.64" y2="37.76"/><line class="cls-5" x1="109.56" y1="38.66" x2="109.56" y2="61.74"/><line class="cls-5" x1="111.59" y1="40.34" x2="111.59" y2="62.3"/><line class="cls-5" x1="102.13" y1="32.52" x2="102.13" y2="59.69"/><path class="cls-5" d="M104.82,34.74V60.43L103,59.92V34.4l1.28,1.13c0,9.79-.2,24.69-.2,24.69"/><polyline class="cls-5" points="110.05 61.88 110.05 40.11 111 40.85 111 62.02"/><line class="cls-5" x1="114.79" y1="47.42" x2="114.79" y2="63.09"/><polyline class="cls-5" points="89.44 24.04 93.56 21.49 115.64 41.8"/><line class="cls-5" x1="102.98" y1="64.62" x2="102.98" y2="78.55"/><line class="cls-5" x1="103.9" y1="64.82" x2="103.9" y2="77.19"/><polyline class="cls-5" points="108.69 65.69 108.69 76.45 105.45 76.79 105.45 65.19"/><polyline class="cls-5" points="103.9 78.26 103.9 76.99 105.45 76.79"/><polyline class="cls-5" points="97.47 72.66 101.77 72.66 101.77 64.44"/><polyline class="cls-5" points="108.69 76.45 114.51 76.45 116.72 76.79"/><line class="cls-5" x1="111.59" y1="66.43" x2="111.59" y2="76.45"/><line class="cls-5" x1="110.73" y1="66.06" x2="110.73" y2="76.45"/><line class="cls-5" x1="109.81" y1="65.89" x2="109.81" y2="76.45"/><polyline class="cls-5" points="111.59 72.66 114.4 72.66 114.4 66.72"/><polyline class="cls-5" points="96.24 45 101.26 47.7 101.26 59.45"/><polyline class="cls-5" points="104.83 49.06 108.69 51.32 108.69 61.57"/><polyline class="cls-5" points="111.59 52.79 113.89 54.07 113.89 62.94"/><line class="cls-5" x1="96.24" y1="38.87" x2="102.13" y2="42.26"/><line class="cls-5" x1="104.82" y1="44.13" x2="109.56" y2="47.02"/><line class="cls-5" x1="111.59" y1="48.35" x2="114.79" y2="50.2"/><line class="cls-5" x1="100.95" y1="31.54" x2="100.95" y2="33.2"/><line class="cls-5" x1="100.95" y1="34.4" x2="100.95" y2="41.58"/><line class="cls-5" x1="108.69" y1="37.99" x2="108.69" y2="46.49"/><line class="cls-5" x1="113.89" y1="42.26" x2="113.89" y2="49.68"/><polyline class="cls-4" points="103.9 77.19 110.52 77.53 116.21 76.71"/><line class="cls-4" x1="112.47" y1="79.06" x2="110.52" y2="77.53"/><line class="cls-4" x1="116.21" y1="77.12" x2="111" y2="77.9"/><line class="cls-4" x1="116.49" y1="77.53" x2="111.59" y2="78.37"/><polyline class="cls-4" points="115.64 73.23 120.34 73.23 120.34 72.66 115.64 72.66"/><line class="cls-4" x1="114.79" y1="49.27" x2="117.62" y2="48.77"/><path class="cls-4" d="M117.57,47.81l.05,1s-1.19,1.19-1.13,2.1a7.61,7.61,0,0,1,0,1.35h-1.7"/><line class="cls-4" x1="120.34" y1="54.6" x2="116.49" y2="52.22"/><polyline class="cls-4" points="114.79 50.59 116.53 50.5 120.74 53.41"/><polyline class="cls-4" points="117.76 72.66 117.76 71.86 117.23 71.13 117.23 52.68"/><line class="cls-4" x1="119.43" y1="72.66" x2="119.43" y2="54.07"/><line class="cls-4" x1="117.23" y1="58.34" x2="119.43" y2="59.45"/><line class="cls-4" x1="117.23" y1="54.07" x2="119.43" y2="55.31"/><line class="cls-4" x1="117.23" y1="60.83" x2="119.43" y2="61.57"/><line class="cls-4" x1="117.23" y1="59.69" x2="119.43" y2="60.53"/><line class="cls-4" x1="117.23" y1="70.45" x2="119.43" y2="70.45"/><polyline class="cls-4" points="114.79 54.93 116.49 54.93 117.23 55.31"/><line class="cls-4" x1="119.43" y1="56.75" x2="120.34" y2="56.75"/><line class="cls-4" x1="117.23" y1="71.13" x2="115.64" y2="71.13"/><line class="cls-4" x1="117.76" y1="71.86" x2="115.64" y2="71.86"/><line class="cls-4" x1="119.43" y1="71.13" x2="120.34" y2="71.13"/><line class="cls-5" x1="115.64" y1="54.93" x2="115.64" y2="63.43"/><line class="cls-5" x1="116.21" y1="54.93" x2="116.21" y2="63.43"/></svg>